{
	"asset":{
		"generator":"Khronos glTF Blender I/O v4.5.48",
		"version":"2.0"
	},
	"scene":0,
	"scenes":[
		{
			"name":"Scene",
			"nodes":[
				5,
				7,
				40,
				41,
				42,
				43
			]
		}
	],
	"nodes":[
		{
			"mesh":0,
			"name":"R_hand_ball_02",
			"scale":[
				1.4483848810195923,
				1.4483848810195923,
				1.4483848810195923
			],
			"translation":[
				-5.960464477539063e-08,
				-1.1920928955078125e-07,
				2.9802322387695312e-08
			]
		},
		{
			"mesh":1,
			"name":"R_hand_sword"
		},
		{
			"name":"SwordBone",
			"translation":[
				0,
				1.9073486328125e-06,
				-2.384185791015625e-07
			]
		},
		{
			"children":[
				1,
				2
			],
			"name":"SwordLoc",
			"scale":[
				0.09911192953586578,
				0.09911192953586578,
				0.09911192953586578
			],
			"translation":[
				-5.960464477539063e-08,
				2.384185791015625e-07,
				2.9802322387695312e-08
			]
		},
		{
			"children":[
				0,
				3
			],
			"name":"R_hand_ball_02",
			"translation":[
				0.2303750216960907,
				0.16738641262054443,
				0.2013852596282959
			]
		},
		{
			"children":[
				4
			],
			"name":"R_h_b_02",
			"scale":[
				0.6904241442680359,
				0.6904241442680359,
				0.6904241442680359
			],
			"translation":[
				0.22851231694221497,
				1.110203504562378,
				0
			]
		},
		{
			"name":"RifleGrowBone"
		},
		{
			"children":[
				6
			],
			"name":"Rifle",
			"scale":[
				0.07100174576044083,
				0.07100174576044083,
				0.07100174576044083
			],
			"translation":[
				1.143476963043213,
				1.0363596677780151,
				0.05472922325134277
			]
		},
		{
			"mesh":2,
			"name":"L_hand",
			"scale":[
				3.6800308227539062,
				3.6800308227539062,
				3.6800308227539062
			],
			"translation":[
				-0.17435407638549805,
				2.384185791015625e-07,
				0
			]
		},
		{
			"children":[
				8
			],
			"name":"L_hand",
			"translation":[
				-2.384185791015625e-07,
				0,
				0
			]
		},
		{
			"children":[
				9
			],
			"name":"L_h",
			"scale":[
				0.27173686027526855,
				0.27173686027526855,
				0.27173686027526855
			],
			"translation":[
				-0.29847148060798645,
				0.97865229845047,
				0
			]
		},
		{
			"mesh":3,
			"name":"L_hand_ball_01",
			"scale":[
				3.5916311740875244,
				3.5916311740875244,
				3.5916311740875244
			]
		},
		{
			"children":[
				11
			],
			"name":"L_hand_ball_01",
			"scale":[
				0.9999998807907104,
				0.9999998807907104,
				0.9999998807907104
			]
		},
		{
			"children":[
				12
			],
			"name":"L_h_b_01",
			"scale":[
				0.2784249782562256,
				0.2784249782562256,
				0.2784249782562256
			],
			"translation":[
				-0.18880747258663177,
				1.1255347728729248,
				0
			]
		},
		{
			"mesh":4,
			"name":"L_hand_ball_02",
			"scale":[
				3.0675196647644043,
				3.0675196647644043,
				3.0675196647644043
			],
			"translation":[
				-1.1920928955078125e-07,
				2.384185791015625e-07,
				4.656612873077393e-10
			]
		},
		{
			"children":[
				14
			],
			"name":"L_hand_ball_02"
		},
		{
			"children":[
				15
			],
			"name":"L_h_b_02",
			"scale":[
				0.3259962797164917,
				0.3259962797164917,
				0.3259962797164917
			],
			"translation":[
				-0.35641926527023315,
				1.1557859182357788,
				0
			]
		},
		{
			"mesh":5,
			"name":"L_hand_ball_03",
			"scale":[
				5.3985748291015625,
				5.3985748291015625,
				5.3985748291015625
			],
			"translation":[
				0,
				-4.76837158203125e-07,
				0
			]
		},
		{
			"children":[
				17
			],
			"name":"L_hand_ball_03"
		},
		{
			"children":[
				18
			],
			"name":"L_h_b_03",
			"scale":[
				0.18523406982421875,
				0.18523406982421875,
				0.18523406982421875
			],
			"translation":[
				-0.22178663313388824,
				1.3101352453231812,
				0
			]
		},
		{
			"name":"PistolGrowBone",
			"translation":[
				-1.9073486328125e-06,
				0,
				-2.384185791015625e-07
			]
		},
		{
			"children":[
				20
			],
			"name":"Pistol",
			"scale":[
				0.05196819454431534,
				0.05196819454431534,
				0.05196819454431534
			],
			"translation":[
				0.4777345657348633,
				1.117044448852539,
				0.06945633888244629
			]
		},
		{
			"mesh":6,
			"name":"R_hand",
			"scale":[
				2.9002645015716553,
				2.9002645015716553,
				2.9002645015716553
			],
			"translation":[
				0,
				-2.384185791015625e-07,
				-4.6566123179658803e-10
			]
		},
		{
			"children":[
				22
			],
			"name":"R_hand",
			"scale":[
				0.9999998807907104,
				0.9999998807907104,
				0.9999998807907104
			]
		},
		{
			"children":[
				23
			],
			"name":"R_h",
			"scale":[
				0.3447960615158081,
				0.3447960615158081,
				0.3447960615158081
			],
			"translation":[
				0.16599760949611664,
				0.9704982042312622,
				0
			]
		},
		{
			"mesh":7,
			"name":"R_hand_pistol",
			"rotation":[
				0.11387278139591217,
				0.36324822902679443,
				-0.27660882472991943,
				0.8823668360710144
			],
			"scale":[
				0.4335087537765503,
				0.43350881338119507,
				0.43350881338119507
			],
			"translation":[
				0.43729162216186523,
				-1.3806743621826172,
				0.6697555780410767
			]
		},
		{
			"name":"PistolBone",
			"scale":[
				0.9999997615814209,
				0.9999997615814209,
				0.9999997615814209
			],
			"translation":[
				-0.000446319580078125,
				-0.02691650390625,
				0.015626907348632812
			]
		},
		{
			"children":[
				25,
				26
			],
			"name":"PistolLoc",
			"scale":[
				0.07351700216531754,
				0.07351700216531754,
				0.07351700216531754
			],
			"translation":[
				-9.530782699584961e-05,
				-9.322166442871094e-05,
				0.003342553973197937
			]
		},
		{
			"mesh":8,
			"name":"R_hand_ball_01",
			"scale":[
				1.4146530628204346,
				1.4146530628204346,
				1.4146530628204346
			],
			"translation":[
				-9.530782699584961e-05,
				-9.322166442871094e-05,
				0.003342553973197937
			]
		},
		{
			"children":[
				27,
				28
			],
			"name":"R_hand_ball_01",
			"scale":[
				0.9999998807907104,
				0.9999998807907104,
				0.9999998807907104
			],
			"translation":[
				0.13012520968914032,
				-0.4457322359085083,
				0.07746533304452896
			]
		},
		{
			"children":[
				29
			],
			"name":"R_h_b_01",
			"scale":[
				0.7068867087364197,
				0.7068867087364197,
				0.7068867087364197
			],
			"translation":[
				0.08525019884109497,
				1.4244744777679443,
				-0.0006060678861103952
			]
		},
		{
			"mesh":9,
			"name":"R_hand_ball_03",
			"scale":[
				1.5102756023406982,
				1.5102756023406982,
				1.5102756023406982
			],
			"translation":[
				2.9802322387695312e-08,
				2.384185791015625e-07,
				0
			]
		},
		{
			"mesh":10,
			"name":"R_hand_rifle",
			"rotation":[
				0.3295753002166748,
				0,
				0,
				0.9441292881965637
			],
			"translation":[
				-0.41254162788391113,
				0.0784454345703125,
				-0.11260515451431274
			]
		},
		{
			"name":"RifleBone",
			"translation":[
				2.384185791015625e-07,
				0,
				-1.1920928955078125e-07
			]
		},
		{
			"children":[
				32,
				33
			],
			"name":"RifleLoc",
			"scale":[
				0.10723221302032471,
				0.10723221302032471,
				0.10723221302032471
			],
			"translation":[
				2.9802322387695312e-08,
				2.384185791015625e-07,
				0
			]
		},
		{
			"children":[
				31,
				34
			],
			"name":"R_hand_ball_03",
			"translation":[
				0.09132730960845947,
				-0.061667561531066895,
				0.09991924464702606
			]
		},
		{
			"children":[
				35
			],
			"name":"R_h_b_03",
			"scale":[
				0.6621307730674744,
				0.6621307730674744,
				0.6621307730674744
			],
			"translation":[
				0.16712796688079834,
				1.280261754989624,
				0
			]
		},
		{
			"name":"SwordGrowBone",
			"translation":[
				0,
				3.814697265625e-06,
				0
			]
		},
		{
			"children":[
				37
			],
			"name":"Sword",
			"scale":[
				0.06842926889657974,
				0.06842926889657974,
				0.06842926889657974
			],
			"translation":[
				0.7061288356781006,
				1.1610596179962158,
				0.02729940414428711
			]
		},
		{
			"children":[
				10,
				13,
				16,
				19,
				21,
				24,
				30,
				36,
				38
			],
			"name":"MCH-root"
		},
		{
			"children":[
				39
			],
			"name":"MCH-root"
		},
		{
			"name":"brush_UnlitHull_g0_b0"
		},
		{
			"name":"node_SceneLight_0_i1",
			"rotation":[
				0.4871850609779358,
				0.11247555166482925,
				-0.19481338560581207,
				0.8438292145729065
			],
			"translation":[
				0,
				0.02187499962747097,
				-0.05458749085664749
			]
		},
		{
			"name":"node_SceneLight_1_i2",
			"rotation":[
				0.8830222487449646,
				0.32139381766319275,
				-0.11697777360677719,
				0.32139378786087036
			],
			"translation":[
				0,
				0.02187499962747097,
				-0.05458749085664749
			]
		}
	],
	"animations":[
		{
			"channels":[
				{
					"sampler":0,
					"target":{
						"node":4,
						"path":"translation"
					}
				},
				{
					"sampler":1,
					"target":{
						"node":4,
						"path":"rotation"
					}
				},
				{
					"sampler":2,
					"target":{
						"node":4,
						"path":"scale"
					}
				},
				{
					"sampler":3,
					"target":{
						"node":2,
						"path":"translation"
					}
				},
				{
					"sampler":4,
					"target":{
						"node":2,
						"path":"rotation"
					}
				},
				{
					"sampler":5,
					"target":{
						"node":2,
						"path":"scale"
					}
				},
				{
					"sampler":6,
					"target":{
						"node":6,
						"path":"translation"
					}
				},
				{
					"sampler":7,
					"target":{
						"node":6,
						"path":"rotation"
					}
				},
				{
					"sampler":8,
					"target":{
						"node":6,
						"path":"scale"
					}
				},
				{
					"sampler":9,
					"target":{
						"node":39,
						"path":"translation"
					}
				},
				{
					"sampler":10,
					"target":{
						"node":39,
						"path":"rotation"
					}
				},
				{
					"sampler":11,
					"target":{
						"node":39,
						"path":"scale"
					}
				},
				{
					"sampler":12,
					"target":{
						"node":9,
						"path":"translation"
					}
				},
				{
					"sampler":13,
					"target":{
						"node":9,
						"path":"rotation"
					}
				},
				{
					"sampler":14,
					"target":{
						"node":9,
						"path":"scale"
					}
				},
				{
					"sampler":15,
					"target":{
						"node":12,
						"path":"translation"
					}
				},
				{
					"sampler":16,
					"target":{
						"node":12,
						"path":"rotation"
					}
				},
				{
					"sampler":17,
					"target":{
						"node":12,
						"path":"scale"
					}
				},
				{
					"sampler":18,
					"target":{
						"node":15,
						"path":"translation"
					}
				},
				{
					"sampler":19,
					"target":{
						"node":15,
						"path":"rotation"
					}
				},
				{
					"sampler":20,
					"target":{
						"node":15,
						"path":"scale"
					}
				},
				{
					"sampler":21,
					"target":{
						"node":18,
						"path":"translation"
					}
				},
				{
					"sampler":22,
					"target":{
						"node":18,
						"path":"rotation"
					}
				},
				{
					"sampler":23,
					"target":{
						"node":18,
						"path":"scale"
					}
				},
				{
					"sampler":24,
					"target":{
						"node":20,
						"path":"translation"
					}
				},
				{
					"sampler":25,
					"target":{
						"node":20,
						"path":"rotation"
					}
				},
				{
					"sampler":26,
					"target":{
						"node":20,
						"path":"scale"
					}
				},
				{
					"sampler":27,
					"target":{
						"node":23,
						"path":"translation"
					}
				},
				{
					"sampler":28,
					"target":{
						"node":23,
						"path":"rotation"
					}
				},
				{
					"sampler":29,
					"target":{
						"node":23,
						"path":"scale"
					}
				},
				{
					"sampler":30,
					"target":{
						"node":29,
						"path":"translation"
					}
				},
				{
					"sampler":31,
					"target":{
						"node":29,
						"path":"rotation"
					}
				},
				{
					"sampler":32,
					"target":{
						"node":29,
						"path":"scale"
					}
				},
				{
					"sampler":33,
					"target":{
						"node":26,
						"path":"translation"
					}
				},
				{
					"sampler":34,
					"target":{
						"node":26,
						"path":"rotation"
					}
				},
				{
					"sampler":35,
					"target":{
						"node":26,
						"path":"scale"
					}
				},
				{
					"sampler":36,
					"target":{
						"node":35,
						"path":"translation"
					}
				},
				{
					"sampler":37,
					"target":{
						"node":35,
						"path":"rotation"
					}
				},
				{
					"sampler":38,
					"target":{
						"node":35,
						"path":"scale"
					}
				},
				{
					"sampler":39,
					"target":{
						"node":33,
						"path":"translation"
					}
				},
				{
					"sampler":40,
					"target":{
						"node":33,
						"path":"rotation"
					}
				},
				{
					"sampler":41,
					"target":{
						"node":33,
						"path":"scale"
					}
				},
				{
					"sampler":42,
					"target":{
						"node":37,
						"path":"translation"
					}
				},
				{
					"sampler":43,
					"target":{
						"node":37,
						"path":"rotation"
					}
				},
				{
					"sampler":44,
					"target":{
						"node":37,
						"path":"scale"
					}
				}
			],
			"name":"Idle_unarmed",
			"samplers":[
				{
					"input":51,
					"interpolation":"LINEAR",
					"output":52
				},
				{
					"input":51,
					"interpolation":"LINEAR",
					"output":53
				},
				{
					"input":51,
					"interpolation":"LINEAR",
					"output":54
				},
				{
					"input":51,
					"interpolation":"LINEAR",
					"output":55
				},
				{
					"input":51,
					"interpolation":"LINEAR",
					"output":53
				},
				{
					"input":51,
					"interpolation":"LINEAR",
					"output":54
				},
				{
					"input":51,
					"interpolation":"LINEAR",
					"output":56
				},
				{
					"input":51,
					"interpolation":"LINEAR",
					"output":53
				},
				{
					"input":51,
					"interpolation":"LINEAR",
					"output":54
				},
				{
					"input":51,
					"interpolation":"LINEAR",
					"output":56
				},
				{
					"input":51,
					"interpolation":"LINEAR",
					"output":53
				},
				{
					"input":51,
					"interpolation":"LINEAR",
					"output":54
				},
				{
					"input":51,
					"interpolation":"LINEAR",
					"output":57
				},
				{
					"input":51,
					"interpolation":"LINEAR",
					"output":53
				},
				{
					"input":51,
					"interpolation":"LINEAR",
					"output":54
				},
				{
					"input":51,
					"interpolation":"LINEAR",
					"output":58
				},
				{
					"input":51,
					"interpolation":"LINEAR",
					"output":53
				},
				{
					"input":51,
					"interpolation":"LINEAR",
					"output":54
				},
				{
					"input":51,
					"interpolation":"LINEAR",
					"output":59
				},
				{
					"input":51,
					"interpolation":"LINEAR",
					"output":53
				},
				{
					"input":51,
					"interpolation":"LINEAR",
					"output":54
				},
				{
					"input":51,
					"interpolation":"LINEAR",
					"output":60
				},
				{
					"input":51,
					"interpolation":"LINEAR",
					"output":53
				},
				{
					"input":51,
					"interpolation":"LINEAR",
					"output":54
				},
				{
					"input":51,
					"interpolation":"LINEAR",
					"output":56
				},
				{
					"input":51,
					"interpolation":"LINEAR",
					"output":53
				},
				{
					"input":51,
					"interpolation":"LINEAR",
					"output":54
				},
				{
					"input":51,
					"interpolation":"LINEAR",
					"output":61
				},
				{
					"input":51,
					"interpolation":"LINEAR",
					"output":53
				},
				{
					"input":51,
					"interpolation":"LINEAR",
					"output":54
				},
				{
					"input":51,
					"interpolation":"LINEAR",
					"output":62
				},
				{
					"input":51,
					"interpolation":"LINEAR",
					"output":53
				},
				{
					"input":51,
					"interpolation":"LINEAR",
					"output":54
				},
				{
					"input":51,
					"interpolation":"LINEAR",
					"output":63
				},
				{
					"input":51,
					"interpolation":"LINEAR",
					"output":53
				},
				{
					"input":51,
					"interpolation":"LINEAR",
					"output":54
				},
				{
					"input":51,
					"interpolation":"LINEAR",
					"output":64
				},
				{
					"input":51,
					"interpolation":"LINEAR",
					"output":53
				},
				{
					"input":51,
					"interpolation":"LINEAR",
					"output":54
				},
				{
					"input":51,
					"interpolation":"LINEAR",
					"output":65
				},
				{
					"input":51,
					"interpolation":"LINEAR",
					"output":53
				},
				{
					"input":51,
					"interpolation":"LINEAR",
					"output":54
				},
				{
					"input":51,
					"interpolation":"LINEAR",
					"output":56
				},
				{
					"input":51,
					"interpolation":"LINEAR",
					"output":53
				},
				{
					"input":51,
					"interpolation":"LINEAR",
					"output":54
				}
			]
		}
	],
	"materials":[
		{
			"doubleSided":true,
			"name":"brush_UnlitHull"
		}
	],
	"meshes":[
		{
			"name":"brush_UnlitHull_g0_b0.007",
			"primitives":[
				{
					"attributes":{
						"POSITION":0,
						"NORMAL":1,
						"TEXCOORD_0":2,
						"COLOR_0":3
					},
					"indices":4,
					"material":0
				}
			]
		},
		{
			"name":"brush_UnlitHull_g0_b0.010",
			"primitives":[
				{
					"attributes":{
						"POSITION":5,
						"NORMAL":6,
						"TEXCOORD_0":7,
						"COLOR_0":8
					},
					"indices":9,
					"material":0
				}
			]
		},
		{
			"name":"brush_UnlitHull_g0_b0.001",
			"primitives":[
				{
					"attributes":{
						"POSITION":10,
						"NORMAL":11,
						"TEXCOORD_0":12,
						"COLOR_0":13
					},
					"indices":14,
					"material":0
				}
			]
		},
		{
			"name":"brush_UnlitHull_g0_b0.005",
			"primitives":[
				{
					"attributes":{
						"POSITION":15,
						"NORMAL":16,
						"TEXCOORD_0":17,
						"COLOR_0":18
					},
					"indices":19,
					"material":0
				}
			]
		},
		{
			"name":"brush_UnlitHull_g0_b0.004",
			"primitives":[
				{
					"attributes":{
						"POSITION":20,
						"NORMAL":21,
						"TEXCOORD_0":22,
						"COLOR_0":23
					},
					"indices":4,
					"material":0
				}
			]
		},
		{
			"name":"brush_UnlitHull_g0_b0.003",
			"primitives":[
				{
					"attributes":{
						"POSITION":24,
						"NORMAL":25,
						"TEXCOORD_0":26,
						"COLOR_0":27
					},
					"indices":28,
					"material":0
				}
			]
		},
		{
			"name":"brush_UnlitHull_g0_b0.002",
			"primitives":[
				{
					"attributes":{
						"POSITION":29,
						"NORMAL":30,
						"TEXCOORD_0":31,
						"COLOR_0":32
					},
					"indices":14,
					"material":0
				}
			]
		},
		{
			"name":"brush_UnlitHull_g0_b0.009",
			"primitives":[
				{
					"attributes":{
						"POSITION":33,
						"NORMAL":34,
						"TEXCOORD_0":35,
						"COLOR_0":36
					},
					"indices":37,
					"material":0
				}
			]
		},
		{
			"name":"brush_UnlitHull_g0_b0.006",
			"primitives":[
				{
					"attributes":{
						"POSITION":38,
						"NORMAL":39,
						"TEXCOORD_0":40,
						"COLOR_0":41
					},
					"indices":19,
					"material":0
				}
			]
		},
		{
			"name":"brush_UnlitHull_g0_b0.008",
			"primitives":[
				{
					"attributes":{
						"POSITION":42,
						"NORMAL":43,
						"TEXCOORD_0":44,
						"COLOR_0":45
					},
					"indices":28,
					"material":0
				}
			]
		},
		{
			"name":"brush_UnlitHull_g0_b0.011",
			"primitives":[
				{
					"attributes":{
						"POSITION":46,
						"NORMAL":47,
						"TEXCOORD_0":48,
						"COLOR_0":49
					},
					"indices":50,
					"material":0
				}
			]
		}
	],
	"skins":[
		{
			"inverseBindMatrices":66,
			"joints":[
				4
			],
			"name":"R_h_b_02"
		},
		{
			"inverseBindMatrices":67,
			"joints":[
				2
			],
			"name":"SwordLoc"
		},
		{
			"inverseBindMatrices":68,
			"joints":[
				6
			],
			"name":"Rifle"
		},
		{
			"inverseBindMatrices":69,
			"joints":[
				39
			],
			"name":"MCH-root"
		},
		{
			"inverseBindMatrices":70,
			"joints":[
				9
			],
			"name":"L_h"
		},
		{
			"inverseBindMatrices":71,
			"joints":[
				12
			],
			"name":"L_h_b_01"
		},
		{
			"inverseBindMatrices":72,
			"joints":[
				15
			],
			"name":"L_h_b_02"
		},
		{
			"inverseBindMatrices":73,
			"joints":[
				18
			],
			"name":"L_h_b_03"
		},
		{
			"inverseBindMatrices":74,
			"joints":[
				20
			],
			"name":"Pistol"
		},
		{
			"inverseBindMatrices":75,
			"joints":[
				23
			],
			"name":"R_h"
		},
		{
			"inverseBindMatrices":76,
			"joints":[
				29
			],
			"name":"R_h_b_01"
		},
		{
			"inverseBindMatrices":77,
			"joints":[
				26
			],
			"name":"PistolLoc"
		},
		{
			"inverseBindMatrices":78,
			"joints":[
				35
			],
			"name":"R_h_b_03"
		},
		{
			"inverseBindMatrices":79,
			"joints":[
				33
			],
			"name":"RifleLoc"
		},
		{
			"inverseBindMatrices":80,
			"joints":[
				37
			],
			"name":"Sword"
		}
	],
	"accessors":[
		{
			"bufferView":0,
			"componentType":5126,
			"count":840,
			"max":[
				0.04412961006164551,
				0.05810868740081787,
				0.04679661989212036
			],
			"min":[
				-0.03710320591926575,
				-0.06123417615890503,
				-0.055212169885635376
			],
			"type":"VEC3"
		},
		{
			"bufferView":1,
			"componentType":5126,
			"count":840,
			"type":"VEC3"
		},
		{
			"bufferView":2,
			"componentType":5126,
			"count":840,
			"type":"VEC2"
		},
		{
			"bufferView":3,
			"componentType":5126,
			"count":840,
			"type":"VEC3"
		},
		{
			"bufferView":4,
			"componentType":5123,
			"count":840,
			"type":"SCALAR"
		},
		{
			"bufferView":5,
			"componentType":5126,
			"count":2202,
			"max":[
				0.15898722410202026,
				0.18192481994628906,
				0.13099747896194458
			],
			"min":[
				-0.12257194519042969,
				-0.18658936023712158,
				-0.11195790767669678
			],
			"type":"VEC3"
		},
		{
			"bufferView":6,
			"componentType":5126,
			"count":2202,
			"type":"VEC3"
		},
		{
			"bufferView":7,
			"componentType":5126,
			"count":2202,
			"type":"VEC2"
		},
		{
			"bufferView":8,
			"componentType":5126,
			"count":2202,
			"type":"VEC3"
		},
		{
			"bufferView":9,
			"componentType":5123,
			"count":2202,
			"type":"SCALAR"
		},
		{
			"bufferView":10,
			"componentType":5126,
			"count":780,
			"max":[
				0.12567497789859772,
				0.03687143325805664,
				0.05083256959915161
			],
			"min":[
				-0.08685223758220673,
				-0.040721774101257324,
				-0.06221216917037964
			],
			"type":"VEC3"
		},
		{
			"bufferView":11,
			"componentType":5126,
			"count":780,
			"type":"VEC3"
		},
		{
			"bufferView":12,
			"componentType":5126,
			"count":780,
			"type":"VEC2"
		},
		{
			"bufferView":13,
			"componentType":5126,
			"count":780,
			"type":"VEC3"
		},
		{
			"bufferView":14,
			"componentType":5123,
			"count":780,
			"type":"SCALAR"
		},
		{
			"bufferView":15,
			"componentType":5126,
			"count":546,
			"max":[
				0.03790026903152466,
				0.03887706995010376,
				0.04759368300437927
			],
			"min":[
				-0.04327702522277832,
				-0.0493808388710022,
				-0.04207158088684082
			],
			"type":"VEC3"
		},
		{
			"bufferView":16,
			"componentType":5126,
			"count":546,
			"type":"VEC3"
		},
		{
			"bufferView":17,
			"componentType":5126,
			"count":546,
			"type":"VEC2"
		},
		{
			"bufferView":18,
			"componentType":5126,
			"count":546,
			"type":"VEC3"
		},
		{
			"bufferView":19,
			"componentType":5123,
			"count":546,
			"type":"SCALAR"
		},
		{
			"bufferView":20,
			"componentType":5126,
			"count":840,
			"max":[
				0.03710290789604187,
				0.058109283447265625,
				0.046796590089797974
			],
			"min":[
				-0.04412996768951416,
				-0.061233580112457275,
				-0.05521225929260254
			],
			"type":"VEC3"
		},
		{
			"bufferView":21,
			"componentType":5126,
			"count":840,
			"type":"VEC3"
		},
		{
			"bufferView":22,
			"componentType":5126,
			"count":840,
			"type":"VEC2"
		},
		{
			"bufferView":23,
			"componentType":5126,
			"count":840,
			"type":"VEC3"
		},
		{
			"bufferView":24,
			"componentType":5126,
			"count":714,
			"max":[
				0.050176385790109634,
				0.05284636467695236,
				0.04815034568309784
			],
			"min":[
				-0.05042057856917381,
				-0.052982158958911896,
				-0.048903629183769226
			],
			"type":"VEC3"
		},
		{
			"bufferView":25,
			"componentType":5126,
			"count":714,
			"type":"VEC3"
		},
		{
			"bufferView":26,
			"componentType":5126,
			"count":714,
			"type":"VEC2"
		},
		{
			"bufferView":27,
			"componentType":5126,
			"count":714,
			"type":"VEC3"
		},
		{
			"bufferView":28,
			"componentType":5123,
			"count":714,
			"type":"SCALAR"
		},
		{
			"bufferView":29,
			"componentType":5126,
			"count":780,
			"max":[
				0.08685240149497986,
				0.03687143325805664,
				0.05083280801773071
			],
			"min":[
				-0.12567481398582458,
				-0.040721774101257324,
				-0.06221194565296173
			],
			"type":"VEC3"
		},
		{
			"bufferView":30,
			"componentType":5126,
			"count":780,
			"type":"VEC3"
		},
		{
			"bufferView":31,
			"componentType":5126,
			"count":780,
			"type":"VEC2"
		},
		{
			"bufferView":32,
			"componentType":5126,
			"count":780,
			"type":"VEC3"
		},
		{
			"bufferView":33,
			"componentType":5126,
			"count":2022,
			"max":[
				0.11096104979515076,
				0.034177303314208984,
				0.11890047788619995
			],
			"min":[
				-0.09405353665351868,
				-0.09240591526031494,
				-0.09523177146911621
			],
			"type":"VEC3"
		},
		{
			"bufferView":34,
			"componentType":5126,
			"count":2022,
			"type":"VEC3"
		},
		{
			"bufferView":35,
			"componentType":5126,
			"count":2022,
			"type":"VEC2"
		},
		{
			"bufferView":36,
			"componentType":5126,
			"count":2022,
			"type":"VEC3"
		},
		{
			"bufferView":37,
			"componentType":5123,
			"count":2022,
			"type":"SCALAR"
		},
		{
			"bufferView":38,
			"componentType":5126,
			"count":546,
			"max":[
				0.043277256190776825,
				0.0388776957988739,
				0.04759373515844345
			],
			"min":[
				-0.03790007159113884,
				-0.04938027262687683,
				-0.042071498930454254
			],
			"type":"VEC3"
		},
		{
			"bufferView":39,
			"componentType":5126,
			"count":546,
			"type":"VEC3"
		},
		{
			"bufferView":40,
			"componentType":5126,
			"count":546,
			"type":"VEC2"
		},
		{
			"bufferView":41,
			"componentType":5126,
			"count":546,
			"type":"VEC3"
		},
		{
			"bufferView":42,
			"componentType":5126,
			"count":714,
			"max":[
				0.051240742206573486,
				0.0535702109336853,
				0.04713922739028931
			],
			"min":[
				-0.04935622215270996,
				-0.052258312702178955,
				-0.049914777278900146
			],
			"type":"VEC3"
		},
		{
			"bufferView":43,
			"componentType":5126,
			"count":714,
			"type":"VEC3"
		},
		{
			"bufferView":44,
			"componentType":5126,
			"count":714,
			"type":"VEC2"
		},
		{
			"bufferView":45,
			"componentType":5126,
			"count":714,
			"type":"VEC3"
		},
		{
			"bufferView":46,
			"componentType":5126,
			"count":2244,
			"max":[
				0.0464327335357666,
				0.11659574508666992,
				0.2518337368965149
			],
			"min":[
				-0.03819775581359863,
				-0.17151278257369995,
				-0.24871909618377686
			],
			"type":"VEC3"
		},
		{
			"bufferView":47,
			"componentType":5126,
			"count":2244,
			"type":"VEC3"
		},
		{
			"bufferView":48,
			"componentType":5126,
			"count":2244,
			"type":"VEC2"
		},
		{
			"bufferView":49,
			"componentType":5126,
			"count":2244,
			"type":"VEC3"
		},
		{
			"bufferView":50,
			"componentType":5123,
			"count":2244,
			"type":"SCALAR"
		},
		{
			"bufferView":51,
			"componentType":5126,
			"count":32,
			"max":[
				1.3333333333333333
			],
			"min":[
				0.041666666666666664
			],
			"type":"SCALAR"
		},
		{
			"bufferView":52,
			"componentType":5126,
			"count":32,
			"type":"VEC3"
		},
		{
			"bufferView":53,
			"componentType":5126,
			"count":32,
			"type":"VEC4"
		},
		{
			"bufferView":54,
			"componentType":5126,
			"count":32,
			"type":"VEC3"
		},
		{
			"bufferView":55,
			"componentType":5126,
			"count":32,
			"type":"VEC3"
		},
		{
			"bufferView":56,
			"componentType":5126,
			"count":32,
			"type":"VEC3"
		},
		{
			"bufferView":57,
			"componentType":5126,
			"count":32,
			"type":"VEC3"
		},
		{
			"bufferView":58,
			"componentType":5126,
			"count":32,
			"type":"VEC3"
		},
		{
			"bufferView":59,
			"componentType":5126,
			"count":32,
			"type":"VEC3"
		},
		{
			"bufferView":60,
			"componentType":5126,
			"count":32,
			"type":"VEC3"
		},
		{
			"bufferView":61,
			"componentType":5126,
			"count":32,
			"type":"VEC3"
		},
		{
			"bufferView":62,
			"componentType":5126,
			"count":32,
			"type":"VEC3"
		},
		{
			"bufferView":63,
			"componentType":5126,
			"count":32,
			"type":"VEC3"
		},
		{
			"bufferView":64,
			"componentType":5126,
			"count":32,
			"type":"VEC3"
		},
		{
			"bufferView":65,
			"componentType":5126,
			"count":32,
			"type":"VEC3"
		},
		{
			"bufferView":66,
			"componentType":5126,
			"count":1,
			"type":"MAT4"
		},
		{
			"bufferView":67,
			"componentType":5126,
			"count":1,
			"type":"MAT4"
		},
		{
			"bufferView":68,
			"componentType":5126,
			"count":1,
			"type":"MAT4"
		},
		{
			"bufferView":69,
			"componentType":5126,
			"count":1,
			"type":"MAT4"
		},
		{
			"bufferView":70,
			"componentType":5126,
			"count":1,
			"type":"MAT4"
		},
		{
			"bufferView":71,
			"componentType":5126,
			"count":1,
			"type":"MAT4"
		},
		{
			"bufferView":72,
			"componentType":5126,
			"count":1,
			"type":"MAT4"
		},
		{
			"bufferView":73,
			"componentType":5126,
			"count":1,
			"type":"MAT4"
		},
		{
			"bufferView":74,
			"componentType":5126,
			"count":1,
			"type":"MAT4"
		},
		{
			"bufferView":75,
			"componentType":5126,
			"count":1,
			"type":"MAT4"
		},
		{
			"bufferView":76,
			"componentType":5126,
			"count":1,
			"type":"MAT4"
		},
		{
			"bufferView":77,
			"componentType":5126,
			"count":1,
			"type":"MAT4"
		},
		{
			"bufferView":78,
			"componentType":5126,
			"count":1,
			"type":"MAT4"
		},
		{
			"bufferView":79,
			"componentType":5126,
			"count":1,
			"type":"MAT4"
		},
		{
			"bufferView":80,
			"componentType":5126,
			"count":1,
			"type":"MAT4"
		}
	],
	"bufferViews":[
		{
			"buffer":0,
			"byteLength":10080,
			"byteOffset":0,
			"target":34962
		},
		{
			"buffer":0,
			"byteLength":10080,
			"byteOffset":10080,
			"target":34962
		},
		{
			"buffer":0,
			"byteLength":6720,
			"byteOffset":20160,
			"target":34962
		},
		{
			"buffer":0,
			"byteLength":10080,
			"byteOffset":26880,
			"target":34962
		},
		{
			"buffer":0,
			"byteLength":1680,
			"byteOffset":36960,
			"target":34963
		},
		{
			"buffer":0,
			"byteLength":26424,
			"byteOffset":38640,
			"target":34962
		},
		{
			"buffer":0,
			"byteLength":26424,
			"byteOffset":65064,
			"target":34962
		},
		{
			"buffer":0,
			"byteLength":17616,
			"byteOffset":91488,
			"target":34962
		},
		{
			"buffer":0,
			"byteLength":26424,
			"byteOffset":109104,
			"target":34962
		},
		{
			"buffer":0,
			"byteLength":4404,
			"byteOffset":135528,
			"target":34963
		},
		{
			"buffer":0,
			"byteLength":9360,
			"byteOffset":139932,
			"target":34962
		},
		{
			"buffer":0,
			"byteLength":9360,
			"byteOffset":149292,
			"target":34962
		},
		{
			"buffer":0,
			"byteLength":6240,
			"byteOffset":158652,
			"target":34962
		},
		{
			"buffer":0,
			"byteLength":9360,
			"byteOffset":164892,
			"target":34962
		},
		{
			"buffer":0,
			"byteLength":1560,
			"byteOffset":174252,
			"target":34963
		},
		{
			"buffer":0,
			"byteLength":6552,
			"byteOffset":175812,
			"target":34962
		},
		{
			"buffer":0,
			"byteLength":6552,
			"byteOffset":182364,
			"target":34962
		},
		{
			"buffer":0,
			"byteLength":4368,
			"byteOffset":188916,
			"target":34962
		},
		{
			"buffer":0,
			"byteLength":6552,
			"byteOffset":193284,
			"target":34962
		},
		{
			"buffer":0,
			"byteLength":1092,
			"byteOffset":199836,
			"target":34963
		},
		{
			"buffer":0,
			"byteLength":10080,
			"byteOffset":200928,
			"target":34962
		},
		{
			"buffer":0,
			"byteLength":10080,
			"byteOffset":211008,
			"target":34962
		},
		{
			"buffer":0,
			"byteLength":6720,
			"byteOffset":221088,
			"target":34962
		},
		{
			"buffer":0,
			"byteLength":10080,
			"byteOffset":227808,
			"target":34962
		},
		{
			"buffer":0,
			"byteLength":8568,
			"byteOffset":237888,
			"target":34962
		},
		{
			"buffer":0,
			"byteLength":8568,
			"byteOffset":246456,
			"target":34962
		},
		{
			"buffer":0,
			"byteLength":5712,
			"byteOffset":255024,
			"target":34962
		},
		{
			"buffer":0,
			"byteLength":8568,
			"byteOffset":260736,
			"target":34962
		},
		{
			"buffer":0,
			"byteLength":1428,
			"byteOffset":269304,
			"target":34963
		},
		{
			"buffer":0,
			"byteLength":9360,
			"byteOffset":270732,
			"target":34962
		},
		{
			"buffer":0,
			"byteLength":9360,
			"byteOffset":280092,
			"target":34962
		},
		{
			"buffer":0,
			"byteLength":6240,
			"byteOffset":289452,
			"target":34962
		},
		{
			"buffer":0,
			"byteLength":9360,
			"byteOffset":295692,
			"target":34962
		},
		{
			"buffer":0,
			"byteLength":24264,
			"byteOffset":305052,
			"target":34962
		},
		{
			"buffer":0,
			"byteLength":24264,
			"byteOffset":329316,
			"target":34962
		},
		{
			"buffer":0,
			"byteLength":16176,
			"byteOffset":353580,
			"target":34962
		},
		{
			"buffer":0,
			"byteLength":24264,
			"byteOffset":369756,
			"target":34962
		},
		{
			"buffer":0,
			"byteLength":4044,
			"byteOffset":394020,
			"target":34963
		},
		{
			"buffer":0,
			"byteLength":6552,
			"byteOffset":398064,
			"target":34962
		},
		{
			"buffer":0,
			"byteLength":6552,
			"byteOffset":404616,
			"target":34962
		},
		{
			"buffer":0,
			"byteLength":4368,
			"byteOffset":411168,
			"target":34962
		},
		{
			"buffer":0,
			"byteLength":6552,
			"byteOffset":415536,
			"target":34962
		},
		{
			"buffer":0,
			"byteLength":8568,
			"byteOffset":422088,
			"target":34962
		},
		{
			"buffer":0,
			"byteLength":8568,
			"byteOffset":430656,
			"target":34962
		},
		{
			"buffer":0,
			"byteLength":5712,
			"byteOffset":439224,
			"target":34962
		},
		{
			"buffer":0,
			"byteLength":8568,
			"byteOffset":444936,
			"target":34962
		},
		{
			"buffer":0,
			"byteLength":26928,
			"byteOffset":453504,
			"target":34962
		},
		{
			"buffer":0,
			"byteLength":26928,
			"byteOffset":480432,
			"target":34962
		},
		{
			"buffer":0,
			"byteLength":17952,
			"byteOffset":507360,
			"target":34962
		},
		{
			"buffer":0,
			"byteLength":26928,
			"byteOffset":525312,
			"target":34962
		},
		{
			"buffer":0,
			"byteLength":4488,
			"byteOffset":552240,
			"target":34963
		},
		{
			"buffer":0,
			"byteLength":128,
			"byteOffset":556728
		},
		{
			"buffer":0,
			"byteLength":384,
			"byteOffset":556856
		},
		{
			"buffer":0,
			"byteLength":512,
			"byteOffset":557240
		},
		{
			"buffer":0,
			"byteLength":384,
			"byteOffset":557752
		},
		{
			"buffer":0,
			"byteLength":384,
			"byteOffset":558136
		},
		{
			"buffer":0,
			"byteLength":384,
			"byteOffset":558520
		},
		{
			"buffer":0,
			"byteLength":384,
			"byteOffset":558904
		},
		{
			"buffer":0,
			"byteLength":384,
			"byteOffset":559288
		},
		{
			"buffer":0,
			"byteLength":384,
			"byteOffset":559672
		},
		{
			"buffer":0,
			"byteLength":384,
			"byteOffset":560056
		},
		{
			"buffer":0,
			"byteLength":384,
			"byteOffset":560440
		},
		{
			"buffer":0,
			"byteLength":384,
			"byteOffset":560824
		},
		{
			"buffer":0,
			"byteLength":384,
			"byteOffset":561208
		},
		{
			"buffer":0,
			"byteLength":384,
			"byteOffset":561592
		},
		{
			"buffer":0,
			"byteLength":384,
			"byteOffset":561976
		},
		{
			"buffer":0,
			"byteLength":64,
			"byteOffset":562360
		},
		{
			"buffer":0,
			"byteLength":64,
			"byteOffset":562424
		},
		{
			"buffer":0,
			"byteLength":64,
			"byteOffset":562488
		},
		{
			"buffer":0,
			"byteLength":64,
			"byteOffset":562552
		},
		{
			"buffer":0,
			"byteLength":64,
			"byteOffset":562616
		},
		{
			"buffer":0,
			"byteLength":64,
			"byteOffset":562680
		},
		{
			"buffer":0,
			"byteLength":64,
			"byteOffset":562744
		},
		{
			"buffer":0,
			"byteLength":64,
			"byteOffset":562808
		},
		{
			"buffer":0,
			"byteLength":64,
			"byteOffset":562872
		},
		{
			"buffer":0,
			"byteLength":64,
			"byteOffset":562936
		},
		{
			"buffer":0,
			"byteLength":64,
			"byteOffset":563000
		},
		{
			"buffer":0,
			"byteLength":64,
			"byteOffset":563064
		},
		{
			"buffer":0,
			"byteLength":64,
			"byteOffset":563128
		},
		{
			"buffer":0,
			"byteLength":64,
			"byteOffset":563192
		},
		{
			"buffer":0,
			"byteLength":64,
			"byteOffset":563256
		}
	],
	"buffers":[
		{
			"byteLength":563320,
			"uri":"Idle_unarmed.bin"
		}
	]
}
